<?xml version="1.0" encoding="utf-8"?>
<!-- Generator: Adobe Illustrator 23.0.1, SVG Export Plug-In . SVG Version: 6.00 Build 0)  -->
<svg version="1.1" id="Layer_1" xmlns="http://www.w3.org/2000/svg" xmlns:xlink="http://www.w3.org/1999/xlink" x="0px" y="0px"
	 viewBox="0 0 1000 1000" style="enable-background:new 0 0 1000 1000;" xml:space="preserve">
<style type="text/css">
	.st0{fill:#EF3F2F;}
</style>
<path class="st0" d="M982.1,455.6L544.6,18.1c-25.2-25.2-66-25.2-91.2,0c0,0,0,0,0,0l-90.8,90.8l115.2,115.2
	c26.8-9.4,57.5-3,78.8,18.4c20.7,20.8,27.8,51.6,18.2,79.3l111.1,111.1c26.9-9.3,57.9-3.3,79.3,18.2c30,30,30,78.6,0,108.6
	c-30,30-78.6,30-108.6,0c-22.5-22.5-28.1-55.7-16.7-83.5L536.3,372.6v272.6c7.5,3.7,14.4,8.6,20.4,14.5c30,30,30,78.6,0,108.6
	s-78.6,30-108.6,0l0,0c-30-29.9-30-78.5-0.1-108.5c0,0,0.1-0.1,0.1-0.1c7.4-7.4,15.7-13,25.1-16.8V367.9
	c-9.1-3.8-17.7-9.3-25.1-16.8c-22.1-22-28.6-55.2-16.5-83.9L317.9,153.6L17.9,453.2c-25.2,25.2-25.2,66-0.1,91.2c0,0,0,0,0.1,0.1
	l437.5,437.4c25.2,25.2,66,25.2,91.2,0c0,0,0,0,0,0l435.4-434.7c25.2-25.2,25.2-66,0.1-91.2c0,0,0,0-0.1-0.1"/>
</svg>
